<svg xmlns="http://www.w3.org/2000/svg" width="640" height="480" viewBox="0 0 640 480" role="img" aria-labelledby="title desc">
  <title id="title">Placeholder réseau</title>
  <desc id="desc">Illustration générique routeur et switch.</desc>
  <rect width="640" height="480" rx="36" fill="#f7f8f4"/>
  <path d="M86 240c124-88 245-84 468 8" fill="none" stroke="#55720f" stroke-width="8" stroke-linecap="round" opacity=".18"/>
  <rect x="112" y="236" width="416" height="92" rx="18" fill="#10120f"/>
  <rect x="146" y="265" width="44" height="24" rx="4" fill="#2d371d"/>
  <rect x="210" y="265" width="44" height="24" rx="4" fill="#2d371d"/>
  <rect x="274" y="265" width="44" height="24" rx="4" fill="#55720f"/>
  <rect x="338" y="265" width="44" height="24" rx="4" fill="#2d371d"/>
  <rect x="402" y="265" width="44" height="24" rx="4" fill="#2d371d"/>
  <path d="M190 229l-28-110M450 229l28-110" stroke="#10120f" stroke-width="14" stroke-linecap="round"/>
  <path d="M254 234l-8-128M386 234l8-128" stroke="#10120f" stroke-width="12" stroke-linecap="round"/>
  <circle cx="476" cy="112" r="12" fill="#a8c84c"/>
  <circle cx="508" cy="146" r="8" fill="#55720f"/>
</svg>
